<svg width="18" height="18" viewBox="0 0 18 18" fill="none" xmlns="http://www.w3.org/2000/svg">
<path d="M9 0C4.02991 0 0 4.02991 0 9C0 13.9701 4.02991 18 9 18C13.9701 18 18 13.9701 18 9C18 4.02991 13.9701 0 9 0ZM9 16.4732C4.87366 16.4732 1.52679 13.1263 1.52679 9C1.52679 4.87366 4.87366 1.52679 9 1.52679C13.1263 1.52679 16.4732 4.87366 16.4732 9C16.4732 13.1263 13.1263 16.4732 9 16.4732Z" fill="white"/>
<path d="M13.1667 8.74085L7.21822 4.42165C7.17052 4.38668 7.11403 4.36564 7.05507 4.36088C6.99611 4.35613 6.93699 4.36783 6.88429 4.3947C6.83159 4.42157 6.78739 4.46255 6.75661 4.51306C6.72583 4.56358 6.70968 4.62165 6.70996 4.6808V13.3192C6.70996 13.5824 7.00729 13.731 7.21822 13.5783L13.1667 9.25915C13.2077 9.22956 13.2412 9.19063 13.2642 9.14557C13.2873 9.10051 13.2993 9.05062 13.2993 9C13.2993 8.94938 13.2873 8.89948 13.2642 8.85442C13.2412 8.80937 13.2077 8.77044 13.1667 8.74085ZM7.99166 11.4328V6.56718L11.3405 9L7.99166 11.4328Z" fill="white"/>
</svg>
